<mxfile host="app.diagrams.net" modified="2022-06-21T14:15:06.145Z" agent="5.0 (X11; Linux x86_64) AppleWebKit/537.36 (KHTML, like Gecko) Chrome/98.0.4758.102 Safari/537.36" etag="xArfpCfHNttctLkiHVIJ" version="20.0.1" type="github">
  <diagram id="iFAj0Ya4DkdA-_twthkn" name="Page-1">
    <mxGraphModel dx="2847" dy="-637" grid="1" gridSize="10" guides="1" tooltips="1" connect="1" arrows="1" fold="1" page="1" pageScale="1" pageWidth="850" pageHeight="1100" background="#EEEEEE" math="0" shadow="0">
      <root>
        <mxCell id="0" />
        <mxCell id="1" parent="0" />
        <mxCell id="chuMLk6BhLXK9JFkTnlV-1" value="List" style="swimlane;fontStyle=0;childLayout=stackLayout;horizontal=1;startSize=30;horizontalStack=0;resizeParent=1;resizeParentMax=0;resizeLast=0;collapsible=1;marginBottom=0;fillColor=#F5AB50;strokeColor=#909090;fontColor=#1A1A1A;" vertex="1" collapsed="1" parent="1">
          <mxGeometry x="-590" y="1140" width="50" height="30" as="geometry">
            <mxRectangle x="-10" y="1130" width="140" height="60" as="alternateBounds" />
          </mxGeometry>
        </mxCell>
        <mxCell id="chuMLk6BhLXK9JFkTnlV-20" value="pelanggan" style="shape=table;startSize=30;container=1;collapsible=1;childLayout=tableLayout;fixedRows=1;rowLines=0;fontStyle=1;align=center;resizeLast=1;fillColor=#F5AB50;strokeColor=#909090;fontColor=#1A1A1A;" vertex="1" parent="1">
          <mxGeometry x="-1600" y="2360" width="180" height="200" as="geometry" />
        </mxCell>
        <mxCell id="chuMLk6BhLXK9JFkTnlV-21" value="" style="shape=tableRow;horizontal=0;startSize=0;swimlaneHead=0;swimlaneBody=0;fillColor=none;collapsible=0;dropTarget=0;points=[[0,0.5],[1,0.5]];portConstraint=eastwest;top=0;left=0;right=0;bottom=1;strokeColor=#909090;fontColor=#1A1A1A;" vertex="1" parent="chuMLk6BhLXK9JFkTnlV-20">
          <mxGeometry y="30" width="180" height="30" as="geometry" />
        </mxCell>
        <mxCell id="chuMLk6BhLXK9JFkTnlV-22" value="PK" style="shape=partialRectangle;connectable=0;fillColor=none;top=0;left=0;bottom=0;right=0;fontStyle=1;overflow=hidden;strokeColor=#909090;fontColor=#1A1A1A;" vertex="1" parent="chuMLk6BhLXK9JFkTnlV-21">
          <mxGeometry width="30" height="30" as="geometry">
            <mxRectangle width="30" height="30" as="alternateBounds" />
          </mxGeometry>
        </mxCell>
        <mxCell id="chuMLk6BhLXK9JFkTnlV-23" value="id_pelanggan" style="shape=partialRectangle;connectable=0;fillColor=none;top=0;left=0;bottom=0;right=0;align=left;spacingLeft=6;fontStyle=5;overflow=hidden;strokeColor=#909090;fontColor=#1A1A1A;" vertex="1" parent="chuMLk6BhLXK9JFkTnlV-21">
          <mxGeometry x="30" width="150" height="30" as="geometry">
            <mxRectangle width="150" height="30" as="alternateBounds" />
          </mxGeometry>
        </mxCell>
        <mxCell id="chuMLk6BhLXK9JFkTnlV-24" value="" style="shape=tableRow;horizontal=0;startSize=0;swimlaneHead=0;swimlaneBody=0;fillColor=none;collapsible=0;dropTarget=0;points=[[0,0.5],[1,0.5]];portConstraint=eastwest;top=0;left=0;right=0;bottom=0;strokeColor=#909090;fontColor=#1A1A1A;" vertex="1" parent="chuMLk6BhLXK9JFkTnlV-20">
          <mxGeometry y="60" width="180" height="30" as="geometry" />
        </mxCell>
        <mxCell id="chuMLk6BhLXK9JFkTnlV-25" value="" style="shape=partialRectangle;connectable=0;fillColor=none;top=0;left=0;bottom=0;right=0;editable=1;overflow=hidden;strokeColor=#909090;fontColor=#1A1A1A;" vertex="1" parent="chuMLk6BhLXK9JFkTnlV-24">
          <mxGeometry width="30" height="30" as="geometry">
            <mxRectangle width="30" height="30" as="alternateBounds" />
          </mxGeometry>
        </mxCell>
        <mxCell id="chuMLk6BhLXK9JFkTnlV-26" value="email" style="shape=partialRectangle;connectable=0;fillColor=none;top=0;left=0;bottom=0;right=0;align=left;spacingLeft=6;overflow=hidden;strokeColor=#909090;fontColor=#1A1A1A;" vertex="1" parent="chuMLk6BhLXK9JFkTnlV-24">
          <mxGeometry x="30" width="150" height="30" as="geometry">
            <mxRectangle width="150" height="30" as="alternateBounds" />
          </mxGeometry>
        </mxCell>
        <mxCell id="chuMLk6BhLXK9JFkTnlV-27" value="" style="shape=tableRow;horizontal=0;startSize=0;swimlaneHead=0;swimlaneBody=0;fillColor=none;collapsible=0;dropTarget=0;points=[[0,0.5],[1,0.5]];portConstraint=eastwest;top=0;left=0;right=0;bottom=0;strokeColor=#909090;fontColor=#1A1A1A;" vertex="1" parent="chuMLk6BhLXK9JFkTnlV-20">
          <mxGeometry y="90" width="180" height="30" as="geometry" />
        </mxCell>
        <mxCell id="chuMLk6BhLXK9JFkTnlV-28" value="" style="shape=partialRectangle;connectable=0;fillColor=none;top=0;left=0;bottom=0;right=0;editable=1;overflow=hidden;strokeColor=#909090;fontColor=#1A1A1A;" vertex="1" parent="chuMLk6BhLXK9JFkTnlV-27">
          <mxGeometry width="30" height="30" as="geometry">
            <mxRectangle width="30" height="30" as="alternateBounds" />
          </mxGeometry>
        </mxCell>
        <mxCell id="chuMLk6BhLXK9JFkTnlV-29" value="password" style="shape=partialRectangle;connectable=0;fillColor=none;top=0;left=0;bottom=0;right=0;align=left;spacingLeft=6;overflow=hidden;strokeColor=#909090;fontColor=#1A1A1A;" vertex="1" parent="chuMLk6BhLXK9JFkTnlV-27">
          <mxGeometry x="30" width="150" height="30" as="geometry">
            <mxRectangle width="150" height="30" as="alternateBounds" />
          </mxGeometry>
        </mxCell>
        <mxCell id="chuMLk6BhLXK9JFkTnlV-30" value="" style="shape=tableRow;horizontal=0;startSize=0;swimlaneHead=0;swimlaneBody=0;fillColor=none;collapsible=0;dropTarget=0;points=[[0,0.5],[1,0.5]];portConstraint=eastwest;top=0;left=0;right=0;bottom=0;strokeColor=#909090;fontColor=#1A1A1A;" vertex="1" parent="chuMLk6BhLXK9JFkTnlV-20">
          <mxGeometry y="120" width="180" height="30" as="geometry" />
        </mxCell>
        <mxCell id="chuMLk6BhLXK9JFkTnlV-31" value="" style="shape=partialRectangle;connectable=0;fillColor=none;top=0;left=0;bottom=0;right=0;editable=1;overflow=hidden;strokeColor=#909090;fontColor=#1A1A1A;" vertex="1" parent="chuMLk6BhLXK9JFkTnlV-30">
          <mxGeometry width="30" height="30" as="geometry">
            <mxRectangle width="30" height="30" as="alternateBounds" />
          </mxGeometry>
        </mxCell>
        <mxCell id="chuMLk6BhLXK9JFkTnlV-32" value="nama" style="shape=partialRectangle;connectable=0;fillColor=none;top=0;left=0;bottom=0;right=0;align=left;spacingLeft=6;overflow=hidden;strokeColor=#909090;fontColor=#1A1A1A;" vertex="1" parent="chuMLk6BhLXK9JFkTnlV-30">
          <mxGeometry x="30" width="150" height="30" as="geometry">
            <mxRectangle width="150" height="30" as="alternateBounds" />
          </mxGeometry>
        </mxCell>
        <mxCell id="chuMLk6BhLXK9JFkTnlV-34" value="" style="shape=tableRow;horizontal=0;startSize=0;swimlaneHead=0;swimlaneBody=0;fillColor=none;collapsible=0;dropTarget=0;points=[[0,0.5],[1,0.5]];portConstraint=eastwest;top=0;left=0;right=0;bottom=0;strokeColor=#909090;fontColor=#1A1A1A;" vertex="1" parent="chuMLk6BhLXK9JFkTnlV-20">
          <mxGeometry y="150" width="180" height="40" as="geometry" />
        </mxCell>
        <mxCell id="chuMLk6BhLXK9JFkTnlV-35" value="" style="shape=partialRectangle;connectable=0;fillColor=none;top=0;left=0;bottom=0;right=0;editable=1;overflow=hidden;strokeColor=#909090;fontColor=#1A1A1A;" vertex="1" parent="chuMLk6BhLXK9JFkTnlV-34">
          <mxGeometry width="30" height="40" as="geometry">
            <mxRectangle width="30" height="40" as="alternateBounds" />
          </mxGeometry>
        </mxCell>
        <mxCell id="chuMLk6BhLXK9JFkTnlV-36" value="telepon" style="shape=partialRectangle;connectable=0;fillColor=none;top=0;left=0;bottom=0;right=0;align=left;spacingLeft=6;overflow=hidden;strokeColor=#909090;fontColor=#1A1A1A;" vertex="1" parent="chuMLk6BhLXK9JFkTnlV-34">
          <mxGeometry x="30" width="150" height="40" as="geometry">
            <mxRectangle width="150" height="40" as="alternateBounds" />
          </mxGeometry>
        </mxCell>
        <mxCell id="chuMLk6BhLXK9JFkTnlV-52" value="pembelian" style="shape=table;startSize=30;container=1;collapsible=1;childLayout=tableLayout;fixedRows=1;rowLines=0;fontStyle=1;align=center;resizeLast=1;fillColor=#F5AB50;strokeColor=#909090;fontColor=#1A1A1A;" vertex="1" parent="1">
          <mxGeometry x="-1195" y="2610" width="180" height="170" as="geometry" />
        </mxCell>
        <mxCell id="chuMLk6BhLXK9JFkTnlV-53" value="" style="shape=tableRow;horizontal=0;startSize=0;swimlaneHead=0;swimlaneBody=0;fillColor=none;collapsible=0;dropTarget=0;points=[[0,0.5],[1,0.5]];portConstraint=eastwest;top=0;left=0;right=0;bottom=0;strokeColor=#909090;fontColor=#1A1A1A;" vertex="1" parent="chuMLk6BhLXK9JFkTnlV-52">
          <mxGeometry y="30" width="180" height="30" as="geometry" />
        </mxCell>
        <mxCell id="chuMLk6BhLXK9JFkTnlV-54" value="PK" style="shape=partialRectangle;connectable=0;fillColor=none;top=0;left=0;bottom=0;right=0;fontStyle=1;overflow=hidden;strokeColor=#909090;fontColor=#1A1A1A;" vertex="1" parent="chuMLk6BhLXK9JFkTnlV-53">
          <mxGeometry width="60" height="30" as="geometry">
            <mxRectangle width="60" height="30" as="alternateBounds" />
          </mxGeometry>
        </mxCell>
        <mxCell id="chuMLk6BhLXK9JFkTnlV-55" value="id_pembelian" style="shape=partialRectangle;connectable=0;fillColor=none;top=0;left=0;bottom=0;right=0;align=left;spacingLeft=6;fontStyle=5;overflow=hidden;strokeColor=#909090;fontColor=#1A1A1A;" vertex="1" parent="chuMLk6BhLXK9JFkTnlV-53">
          <mxGeometry x="60" width="120" height="30" as="geometry">
            <mxRectangle width="120" height="30" as="alternateBounds" />
          </mxGeometry>
        </mxCell>
        <mxCell id="chuMLk6BhLXK9JFkTnlV-56" value="" style="shape=tableRow;horizontal=0;startSize=0;swimlaneHead=0;swimlaneBody=0;fillColor=none;collapsible=0;dropTarget=0;points=[[0,0.5],[1,0.5]];portConstraint=eastwest;top=0;left=0;right=0;bottom=1;strokeColor=#909090;fontColor=#1A1A1A;" vertex="1" parent="chuMLk6BhLXK9JFkTnlV-52">
          <mxGeometry y="60" width="180" height="40" as="geometry" />
        </mxCell>
        <mxCell id="chuMLk6BhLXK9JFkTnlV-57" value="FK" style="shape=partialRectangle;connectable=0;fillColor=none;top=0;left=0;bottom=0;right=0;fontStyle=1;overflow=hidden;strokeColor=#909090;fontColor=#1A1A1A;" vertex="1" parent="chuMLk6BhLXK9JFkTnlV-56">
          <mxGeometry width="60" height="40" as="geometry">
            <mxRectangle width="60" height="40" as="alternateBounds" />
          </mxGeometry>
        </mxCell>
        <mxCell id="chuMLk6BhLXK9JFkTnlV-58" value="id_pelanggan" style="shape=partialRectangle;connectable=0;fillColor=none;top=0;left=0;bottom=0;right=0;align=left;spacingLeft=6;fontStyle=5;overflow=hidden;strokeColor=#909090;fontColor=#1A1A1A;" vertex="1" parent="chuMLk6BhLXK9JFkTnlV-56">
          <mxGeometry x="60" width="120" height="40" as="geometry">
            <mxRectangle width="120" height="40" as="alternateBounds" />
          </mxGeometry>
        </mxCell>
        <mxCell id="chuMLk6BhLXK9JFkTnlV-59" value="" style="shape=tableRow;horizontal=0;startSize=0;swimlaneHead=0;swimlaneBody=0;fillColor=none;collapsible=0;dropTarget=0;points=[[0,0.5],[1,0.5]];portConstraint=eastwest;top=0;left=0;right=0;bottom=0;strokeColor=#909090;fontColor=#1A1A1A;" vertex="1" parent="chuMLk6BhLXK9JFkTnlV-52">
          <mxGeometry y="100" width="180" height="20" as="geometry" />
        </mxCell>
        <mxCell id="chuMLk6BhLXK9JFkTnlV-60" value="" style="shape=partialRectangle;connectable=0;fillColor=none;top=0;left=0;bottom=0;right=0;editable=1;overflow=hidden;strokeColor=#909090;fontColor=#1A1A1A;" vertex="1" parent="chuMLk6BhLXK9JFkTnlV-59">
          <mxGeometry width="60" height="20" as="geometry">
            <mxRectangle width="60" height="20" as="alternateBounds" />
          </mxGeometry>
        </mxCell>
        <mxCell id="chuMLk6BhLXK9JFkTnlV-61" value="tangal_pembelian" style="shape=partialRectangle;connectable=0;fillColor=none;top=0;left=0;bottom=0;right=0;align=left;spacingLeft=6;overflow=hidden;strokeColor=#909090;fontColor=#1A1A1A;" vertex="1" parent="chuMLk6BhLXK9JFkTnlV-59">
          <mxGeometry x="60" width="120" height="20" as="geometry">
            <mxRectangle width="120" height="20" as="alternateBounds" />
          </mxGeometry>
        </mxCell>
        <mxCell id="chuMLk6BhLXK9JFkTnlV-66" value="" style="shape=tableRow;horizontal=0;startSize=0;swimlaneHead=0;swimlaneBody=0;fillColor=none;collapsible=0;dropTarget=0;points=[[0,0.5],[1,0.5]];portConstraint=eastwest;top=0;left=0;right=0;bottom=0;strokeColor=#909090;fontColor=#1A1A1A;" vertex="1" parent="chuMLk6BhLXK9JFkTnlV-52">
          <mxGeometry y="120" width="180" height="30" as="geometry" />
        </mxCell>
        <mxCell id="chuMLk6BhLXK9JFkTnlV-67" value="" style="shape=partialRectangle;connectable=0;fillColor=none;top=0;left=0;bottom=0;right=0;editable=1;overflow=hidden;strokeColor=#909090;fontColor=#1A1A1A;" vertex="1" parent="chuMLk6BhLXK9JFkTnlV-66">
          <mxGeometry width="60" height="30" as="geometry">
            <mxRectangle width="60" height="30" as="alternateBounds" />
          </mxGeometry>
        </mxCell>
        <mxCell id="chuMLk6BhLXK9JFkTnlV-68" value="jumlah pembelian" style="shape=partialRectangle;connectable=0;fillColor=none;top=0;left=0;bottom=0;right=0;align=left;spacingLeft=6;overflow=hidden;strokeColor=#909090;fontColor=#1A1A1A;" vertex="1" parent="chuMLk6BhLXK9JFkTnlV-66">
          <mxGeometry x="60" width="120" height="30" as="geometry">
            <mxRectangle width="120" height="30" as="alternateBounds" />
          </mxGeometry>
        </mxCell>
        <mxCell id="chuMLk6BhLXK9JFkTnlV-62" value="" style="shape=tableRow;horizontal=0;startSize=0;swimlaneHead=0;swimlaneBody=0;fillColor=none;collapsible=0;dropTarget=0;points=[[0,0.5],[1,0.5]];portConstraint=eastwest;top=0;left=0;right=0;bottom=0;strokeColor=#909090;fontColor=#1A1A1A;" vertex="1" parent="chuMLk6BhLXK9JFkTnlV-52">
          <mxGeometry y="150" width="180" height="20" as="geometry" />
        </mxCell>
        <mxCell id="chuMLk6BhLXK9JFkTnlV-63" value="" style="shape=partialRectangle;connectable=0;fillColor=none;top=0;left=0;bottom=0;right=0;editable=1;overflow=hidden;strokeColor=#909090;fontColor=#1A1A1A;" vertex="1" parent="chuMLk6BhLXK9JFkTnlV-62">
          <mxGeometry width="60" height="20" as="geometry">
            <mxRectangle width="60" height="20" as="alternateBounds" />
          </mxGeometry>
        </mxCell>
        <mxCell id="chuMLk6BhLXK9JFkTnlV-64" value="" style="shape=partialRectangle;connectable=0;fillColor=none;top=0;left=0;bottom=0;right=0;align=left;spacingLeft=6;overflow=hidden;strokeColor=#909090;fontColor=#1A1A1A;" vertex="1" parent="chuMLk6BhLXK9JFkTnlV-62">
          <mxGeometry x="60" width="120" height="20" as="geometry">
            <mxRectangle width="120" height="20" as="alternateBounds" />
          </mxGeometry>
        </mxCell>
        <mxCell id="chuMLk6BhLXK9JFkTnlV-69" value="produk" style="shape=table;startSize=30;container=1;collapsible=1;childLayout=tableLayout;fixedRows=1;rowLines=0;fontStyle=1;align=center;resizeLast=1;fillColor=#F5AB50;strokeColor=#909090;fontColor=#1A1A1A;" vertex="1" parent="1">
          <mxGeometry x="-1190" y="2090" width="180" height="215" as="geometry" />
        </mxCell>
        <mxCell id="chuMLk6BhLXK9JFkTnlV-70" value="" style="shape=tableRow;horizontal=0;startSize=0;swimlaneHead=0;swimlaneBody=0;fillColor=none;collapsible=0;dropTarget=0;points=[[0,0.5],[1,0.5]];portConstraint=eastwest;top=0;left=0;right=0;bottom=1;strokeColor=#909090;fontColor=#1A1A1A;" vertex="1" parent="chuMLk6BhLXK9JFkTnlV-69">
          <mxGeometry y="30" width="180" height="30" as="geometry" />
        </mxCell>
        <mxCell id="chuMLk6BhLXK9JFkTnlV-71" value="PK" style="shape=partialRectangle;connectable=0;fillColor=none;top=0;left=0;bottom=0;right=0;fontStyle=1;overflow=hidden;strokeColor=#909090;fontColor=#1A1A1A;" vertex="1" parent="chuMLk6BhLXK9JFkTnlV-70">
          <mxGeometry width="30" height="30" as="geometry">
            <mxRectangle width="30" height="30" as="alternateBounds" />
          </mxGeometry>
        </mxCell>
        <mxCell id="chuMLk6BhLXK9JFkTnlV-72" value="id_produk" style="shape=partialRectangle;connectable=0;fillColor=none;top=0;left=0;bottom=0;right=0;align=left;spacingLeft=6;fontStyle=5;overflow=hidden;strokeColor=#909090;fontColor=#1A1A1A;" vertex="1" parent="chuMLk6BhLXK9JFkTnlV-70">
          <mxGeometry x="30" width="150" height="30" as="geometry">
            <mxRectangle width="150" height="30" as="alternateBounds" />
          </mxGeometry>
        </mxCell>
        <mxCell id="chuMLk6BhLXK9JFkTnlV-73" value="" style="shape=tableRow;horizontal=0;startSize=0;swimlaneHead=0;swimlaneBody=0;fillColor=none;collapsible=0;dropTarget=0;points=[[0,0.5],[1,0.5]];portConstraint=eastwest;top=0;left=0;right=0;bottom=0;strokeColor=#909090;fontColor=#1A1A1A;" vertex="1" parent="chuMLk6BhLXK9JFkTnlV-69">
          <mxGeometry y="60" width="180" height="20" as="geometry" />
        </mxCell>
        <mxCell id="chuMLk6BhLXK9JFkTnlV-74" value="" style="shape=partialRectangle;connectable=0;fillColor=none;top=0;left=0;bottom=0;right=0;editable=1;overflow=hidden;strokeColor=#909090;fontColor=#1A1A1A;" vertex="1" parent="chuMLk6BhLXK9JFkTnlV-73">
          <mxGeometry width="30" height="20" as="geometry">
            <mxRectangle width="30" height="20" as="alternateBounds" />
          </mxGeometry>
        </mxCell>
        <mxCell id="chuMLk6BhLXK9JFkTnlV-75" value="pabrikan" style="shape=partialRectangle;connectable=0;fillColor=none;top=0;left=0;bottom=0;right=0;align=left;spacingLeft=6;overflow=hidden;strokeColor=#909090;fontColor=#1A1A1A;" vertex="1" parent="chuMLk6BhLXK9JFkTnlV-73">
          <mxGeometry x="30" width="150" height="20" as="geometry">
            <mxRectangle width="150" height="20" as="alternateBounds" />
          </mxGeometry>
        </mxCell>
        <mxCell id="chuMLk6BhLXK9JFkTnlV-76" value="" style="shape=tableRow;horizontal=0;startSize=0;swimlaneHead=0;swimlaneBody=0;fillColor=none;collapsible=0;dropTarget=0;points=[[0,0.5],[1,0.5]];portConstraint=eastwest;top=0;left=0;right=0;bottom=0;strokeColor=#909090;fontColor=#1A1A1A;" vertex="1" parent="chuMLk6BhLXK9JFkTnlV-69">
          <mxGeometry y="80" width="180" height="25" as="geometry" />
        </mxCell>
        <mxCell id="chuMLk6BhLXK9JFkTnlV-77" value="" style="shape=partialRectangle;connectable=0;fillColor=none;top=0;left=0;bottom=0;right=0;editable=1;overflow=hidden;strokeColor=#909090;fontColor=#1A1A1A;" vertex="1" parent="chuMLk6BhLXK9JFkTnlV-76">
          <mxGeometry width="30" height="25" as="geometry">
            <mxRectangle width="30" height="25" as="alternateBounds" />
          </mxGeometry>
        </mxCell>
        <mxCell id="chuMLk6BhLXK9JFkTnlV-78" value="type" style="shape=partialRectangle;connectable=0;fillColor=none;top=0;left=0;bottom=0;right=0;align=left;spacingLeft=6;overflow=hidden;strokeColor=#909090;fontColor=#1A1A1A;" vertex="1" parent="chuMLk6BhLXK9JFkTnlV-76">
          <mxGeometry x="30" width="150" height="25" as="geometry">
            <mxRectangle width="150" height="25" as="alternateBounds" />
          </mxGeometry>
        </mxCell>
        <mxCell id="chuMLk6BhLXK9JFkTnlV-83" value="" style="shape=tableRow;horizontal=0;startSize=0;swimlaneHead=0;swimlaneBody=0;fillColor=none;collapsible=0;dropTarget=0;points=[[0,0.5],[1,0.5]];portConstraint=eastwest;top=0;left=0;right=0;bottom=0;strokeColor=#909090;fontColor=#1A1A1A;" vertex="1" parent="chuMLk6BhLXK9JFkTnlV-69">
          <mxGeometry y="105" width="180" height="25" as="geometry" />
        </mxCell>
        <mxCell id="chuMLk6BhLXK9JFkTnlV-84" value="" style="shape=partialRectangle;connectable=0;fillColor=none;top=0;left=0;bottom=0;right=0;editable=1;overflow=hidden;strokeColor=#909090;fontColor=#1A1A1A;" vertex="1" parent="chuMLk6BhLXK9JFkTnlV-83">
          <mxGeometry width="30" height="25" as="geometry">
            <mxRectangle width="30" height="25" as="alternateBounds" />
          </mxGeometry>
        </mxCell>
        <mxCell id="chuMLk6BhLXK9JFkTnlV-85" value="harga" style="shape=partialRectangle;connectable=0;fillColor=none;top=0;left=0;bottom=0;right=0;align=left;spacingLeft=6;overflow=hidden;strokeColor=#909090;fontColor=#1A1A1A;" vertex="1" parent="chuMLk6BhLXK9JFkTnlV-83">
          <mxGeometry x="30" width="150" height="25" as="geometry">
            <mxRectangle width="150" height="25" as="alternateBounds" />
          </mxGeometry>
        </mxCell>
        <mxCell id="chuMLk6BhLXK9JFkTnlV-86" value="" style="shape=tableRow;horizontal=0;startSize=0;swimlaneHead=0;swimlaneBody=0;fillColor=none;collapsible=0;dropTarget=0;points=[[0,0.5],[1,0.5]];portConstraint=eastwest;top=0;left=0;right=0;bottom=0;strokeColor=#909090;fontColor=#1A1A1A;" vertex="1" parent="chuMLk6BhLXK9JFkTnlV-69">
          <mxGeometry y="130" width="180" height="30" as="geometry" />
        </mxCell>
        <mxCell id="chuMLk6BhLXK9JFkTnlV-87" value="" style="shape=partialRectangle;connectable=0;fillColor=none;top=0;left=0;bottom=0;right=0;editable=1;overflow=hidden;strokeColor=#909090;fontColor=#1A1A1A;" vertex="1" parent="chuMLk6BhLXK9JFkTnlV-86">
          <mxGeometry width="30" height="30" as="geometry">
            <mxRectangle width="30" height="30" as="alternateBounds" />
          </mxGeometry>
        </mxCell>
        <mxCell id="chuMLk6BhLXK9JFkTnlV-88" value="warna" style="shape=partialRectangle;connectable=0;fillColor=none;top=0;left=0;bottom=0;right=0;align=left;spacingLeft=6;overflow=hidden;strokeColor=#909090;fontColor=#1A1A1A;" vertex="1" parent="chuMLk6BhLXK9JFkTnlV-86">
          <mxGeometry x="30" width="150" height="30" as="geometry">
            <mxRectangle width="150" height="30" as="alternateBounds" />
          </mxGeometry>
        </mxCell>
        <mxCell id="chuMLk6BhLXK9JFkTnlV-79" value="" style="shape=tableRow;horizontal=0;startSize=0;swimlaneHead=0;swimlaneBody=0;fillColor=none;collapsible=0;dropTarget=0;points=[[0,0.5],[1,0.5]];portConstraint=eastwest;top=0;left=0;right=0;bottom=0;strokeColor=#909090;fontColor=#1A1A1A;" vertex="1" parent="chuMLk6BhLXK9JFkTnlV-69">
          <mxGeometry y="160" width="180" height="25" as="geometry" />
        </mxCell>
        <mxCell id="chuMLk6BhLXK9JFkTnlV-80" value="" style="shape=partialRectangle;connectable=0;fillColor=none;top=0;left=0;bottom=0;right=0;editable=1;overflow=hidden;strokeColor=#909090;fontColor=#1A1A1A;" vertex="1" parent="chuMLk6BhLXK9JFkTnlV-79">
          <mxGeometry width="30" height="25" as="geometry">
            <mxRectangle width="30" height="25" as="alternateBounds" />
          </mxGeometry>
        </mxCell>
        <mxCell id="chuMLk6BhLXK9JFkTnlV-81" value="tahun" style="shape=partialRectangle;connectable=0;fillColor=none;top=0;left=0;bottom=0;right=0;align=left;spacingLeft=6;overflow=hidden;strokeColor=#909090;fontColor=#1A1A1A;" vertex="1" parent="chuMLk6BhLXK9JFkTnlV-79">
          <mxGeometry x="30" width="150" height="25" as="geometry">
            <mxRectangle width="150" height="25" as="alternateBounds" />
          </mxGeometry>
        </mxCell>
        <mxCell id="chuMLk6BhLXK9JFkTnlV-89" value="" style="shape=tableRow;horizontal=0;startSize=0;swimlaneHead=0;swimlaneBody=0;fillColor=none;collapsible=0;dropTarget=0;points=[[0,0.5],[1,0.5]];portConstraint=eastwest;top=0;left=0;right=0;bottom=0;strokeColor=#909090;fontColor=#1A1A1A;" vertex="1" parent="chuMLk6BhLXK9JFkTnlV-69">
          <mxGeometry y="185" width="180" height="30" as="geometry" />
        </mxCell>
        <mxCell id="chuMLk6BhLXK9JFkTnlV-90" value="" style="shape=partialRectangle;connectable=0;fillColor=none;top=0;left=0;bottom=0;right=0;editable=1;overflow=hidden;strokeColor=#909090;fontColor=#1A1A1A;" vertex="1" parent="chuMLk6BhLXK9JFkTnlV-89">
          <mxGeometry width="30" height="30" as="geometry">
            <mxRectangle width="30" height="30" as="alternateBounds" />
          </mxGeometry>
        </mxCell>
        <mxCell id="chuMLk6BhLXK9JFkTnlV-91" value="stok" style="shape=partialRectangle;connectable=0;fillColor=none;top=0;left=0;bottom=0;right=0;align=left;spacingLeft=6;overflow=hidden;strokeColor=#909090;fontColor=#1A1A1A;" vertex="1" parent="chuMLk6BhLXK9JFkTnlV-89">
          <mxGeometry x="30" width="150" height="30" as="geometry">
            <mxRectangle width="150" height="30" as="alternateBounds" />
          </mxGeometry>
        </mxCell>
        <mxCell id="chuMLk6BhLXK9JFkTnlV-92" value="admin" style="shape=table;startSize=30;container=1;collapsible=1;childLayout=tableLayout;fixedRows=1;rowLines=0;fontStyle=1;align=center;resizeLast=1;fillColor=#F5AB50;strokeColor=#909090;fontColor=#1A1A1A;" vertex="1" parent="1">
          <mxGeometry x="-1600" y="2090" width="180" height="150" as="geometry" />
        </mxCell>
        <mxCell id="chuMLk6BhLXK9JFkTnlV-93" value="" style="shape=tableRow;horizontal=0;startSize=0;swimlaneHead=0;swimlaneBody=0;fillColor=none;collapsible=0;dropTarget=0;points=[[0,0.5],[1,0.5]];portConstraint=eastwest;top=0;left=0;right=0;bottom=1;strokeColor=#909090;fontColor=#1A1A1A;" vertex="1" parent="chuMLk6BhLXK9JFkTnlV-92">
          <mxGeometry y="30" width="180" height="20" as="geometry" />
        </mxCell>
        <mxCell id="chuMLk6BhLXK9JFkTnlV-94" value="PK" style="shape=partialRectangle;connectable=0;fillColor=none;top=0;left=0;bottom=0;right=0;fontStyle=1;overflow=hidden;strokeColor=#909090;fontColor=#1A1A1A;" vertex="1" parent="chuMLk6BhLXK9JFkTnlV-93">
          <mxGeometry width="30" height="20" as="geometry">
            <mxRectangle width="30" height="20" as="alternateBounds" />
          </mxGeometry>
        </mxCell>
        <mxCell id="chuMLk6BhLXK9JFkTnlV-95" value="id" style="shape=partialRectangle;connectable=0;fillColor=none;top=0;left=0;bottom=0;right=0;align=left;spacingLeft=6;fontStyle=5;overflow=hidden;strokeColor=#909090;fontColor=#1A1A1A;" vertex="1" parent="chuMLk6BhLXK9JFkTnlV-93">
          <mxGeometry x="30" width="150" height="20" as="geometry">
            <mxRectangle width="150" height="20" as="alternateBounds" />
          </mxGeometry>
        </mxCell>
        <mxCell id="chuMLk6BhLXK9JFkTnlV-96" value="" style="shape=tableRow;horizontal=0;startSize=0;swimlaneHead=0;swimlaneBody=0;fillColor=none;collapsible=0;dropTarget=0;points=[[0,0.5],[1,0.5]];portConstraint=eastwest;top=0;left=0;right=0;bottom=0;strokeColor=#909090;fontColor=#1A1A1A;" vertex="1" parent="chuMLk6BhLXK9JFkTnlV-92">
          <mxGeometry y="50" width="180" height="30" as="geometry" />
        </mxCell>
        <mxCell id="chuMLk6BhLXK9JFkTnlV-97" value="" style="shape=partialRectangle;connectable=0;fillColor=none;top=0;left=0;bottom=0;right=0;editable=1;overflow=hidden;strokeColor=#909090;fontColor=#1A1A1A;" vertex="1" parent="chuMLk6BhLXK9JFkTnlV-96">
          <mxGeometry width="30" height="30" as="geometry">
            <mxRectangle width="30" height="30" as="alternateBounds" />
          </mxGeometry>
        </mxCell>
        <mxCell id="chuMLk6BhLXK9JFkTnlV-98" value="nama" style="shape=partialRectangle;connectable=0;fillColor=none;top=0;left=0;bottom=0;right=0;align=left;spacingLeft=6;overflow=hidden;strokeColor=#909090;fontColor=#1A1A1A;" vertex="1" parent="chuMLk6BhLXK9JFkTnlV-96">
          <mxGeometry x="30" width="150" height="30" as="geometry">
            <mxRectangle width="150" height="30" as="alternateBounds" />
          </mxGeometry>
        </mxCell>
        <mxCell id="chuMLk6BhLXK9JFkTnlV-99" value="" style="shape=tableRow;horizontal=0;startSize=0;swimlaneHead=0;swimlaneBody=0;fillColor=none;collapsible=0;dropTarget=0;points=[[0,0.5],[1,0.5]];portConstraint=eastwest;top=0;left=0;right=0;bottom=0;strokeColor=#909090;fontColor=#1A1A1A;" vertex="1" parent="chuMLk6BhLXK9JFkTnlV-92">
          <mxGeometry y="80" width="180" height="30" as="geometry" />
        </mxCell>
        <mxCell id="chuMLk6BhLXK9JFkTnlV-100" value="" style="shape=partialRectangle;connectable=0;fillColor=none;top=0;left=0;bottom=0;right=0;editable=1;overflow=hidden;strokeColor=#909090;fontColor=#1A1A1A;" vertex="1" parent="chuMLk6BhLXK9JFkTnlV-99">
          <mxGeometry width="30" height="30" as="geometry">
            <mxRectangle width="30" height="30" as="alternateBounds" />
          </mxGeometry>
        </mxCell>
        <mxCell id="chuMLk6BhLXK9JFkTnlV-101" value="email" style="shape=partialRectangle;connectable=0;fillColor=none;top=0;left=0;bottom=0;right=0;align=left;spacingLeft=6;overflow=hidden;strokeColor=#909090;fontColor=#1A1A1A;" vertex="1" parent="chuMLk6BhLXK9JFkTnlV-99">
          <mxGeometry x="30" width="150" height="30" as="geometry">
            <mxRectangle width="150" height="30" as="alternateBounds" />
          </mxGeometry>
        </mxCell>
        <mxCell id="chuMLk6BhLXK9JFkTnlV-102" value="" style="shape=tableRow;horizontal=0;startSize=0;swimlaneHead=0;swimlaneBody=0;fillColor=none;collapsible=0;dropTarget=0;points=[[0,0.5],[1,0.5]];portConstraint=eastwest;top=0;left=0;right=0;bottom=0;strokeColor=#909090;fontColor=#1A1A1A;" vertex="1" parent="chuMLk6BhLXK9JFkTnlV-92">
          <mxGeometry y="110" width="180" height="30" as="geometry" />
        </mxCell>
        <mxCell id="chuMLk6BhLXK9JFkTnlV-103" value="" style="shape=partialRectangle;connectable=0;fillColor=none;top=0;left=0;bottom=0;right=0;editable=1;overflow=hidden;strokeColor=#909090;fontColor=#1A1A1A;" vertex="1" parent="chuMLk6BhLXK9JFkTnlV-102">
          <mxGeometry width="30" height="30" as="geometry">
            <mxRectangle width="30" height="30" as="alternateBounds" />
          </mxGeometry>
        </mxCell>
        <mxCell id="chuMLk6BhLXK9JFkTnlV-104" value="password" style="shape=partialRectangle;connectable=0;fillColor=none;top=0;left=0;bottom=0;right=0;align=left;spacingLeft=6;overflow=hidden;strokeColor=#909090;fontColor=#1A1A1A;" vertex="1" parent="chuMLk6BhLXK9JFkTnlV-102">
          <mxGeometry x="30" width="150" height="30" as="geometry">
            <mxRectangle width="150" height="30" as="alternateBounds" />
          </mxGeometry>
        </mxCell>
        <mxCell id="chuMLk6BhLXK9JFkTnlV-112" value="pembelian produk" style="shape=table;startSize=30;container=1;collapsible=1;childLayout=tableLayout;fixedRows=1;rowLines=0;fontStyle=1;align=center;resizeLast=1;rounded=0;sketch=0;fontColor=#1A1A1A;strokeColor=#909090;fillColor=#F5AB50;" vertex="1" parent="1">
          <mxGeometry x="-1190" y="2380" width="170" height="170" as="geometry" />
        </mxCell>
        <mxCell id="chuMLk6BhLXK9JFkTnlV-113" value="" style="shape=tableRow;horizontal=0;startSize=0;swimlaneHead=0;swimlaneBody=0;fillColor=none;collapsible=0;dropTarget=0;points=[[0,0.5],[1,0.5]];portConstraint=eastwest;top=0;left=0;right=0;bottom=1;rounded=0;sketch=0;fontColor=#1A1A1A;strokeColor=#909090;" vertex="1" parent="chuMLk6BhLXK9JFkTnlV-112">
          <mxGeometry y="30" width="170" height="30" as="geometry" />
        </mxCell>
        <mxCell id="chuMLk6BhLXK9JFkTnlV-114" value="PK" style="shape=partialRectangle;connectable=0;fillColor=none;top=0;left=0;bottom=0;right=0;fontStyle=1;overflow=hidden;rounded=0;sketch=0;fontColor=#1A1A1A;strokeColor=#909090;" vertex="1" parent="chuMLk6BhLXK9JFkTnlV-113">
          <mxGeometry width="30" height="30" as="geometry">
            <mxRectangle width="30" height="30" as="alternateBounds" />
          </mxGeometry>
        </mxCell>
        <mxCell id="chuMLk6BhLXK9JFkTnlV-115" value="id_pembelian_produk" style="shape=partialRectangle;connectable=0;fillColor=none;top=0;left=0;bottom=0;right=0;align=left;spacingLeft=6;fontStyle=5;overflow=hidden;rounded=0;sketch=0;fontColor=#1A1A1A;strokeColor=#909090;" vertex="1" parent="chuMLk6BhLXK9JFkTnlV-113">
          <mxGeometry x="30" width="140" height="30" as="geometry">
            <mxRectangle width="140" height="30" as="alternateBounds" />
          </mxGeometry>
        </mxCell>
        <mxCell id="chuMLk6BhLXK9JFkTnlV-125" value="" style="shape=tableRow;horizontal=0;startSize=0;swimlaneHead=0;swimlaneBody=0;fillColor=none;collapsible=0;dropTarget=0;points=[[0,0.5],[1,0.5]];portConstraint=eastwest;top=0;left=0;right=0;bottom=0;rounded=0;sketch=0;fontColor=#1A1A1A;strokeColor=#909090;" vertex="1" parent="chuMLk6BhLXK9JFkTnlV-112">
          <mxGeometry y="60" width="170" height="30" as="geometry" />
        </mxCell>
        <mxCell id="chuMLk6BhLXK9JFkTnlV-126" value="FK" style="shape=partialRectangle;connectable=0;fillColor=none;top=0;left=0;bottom=0;right=0;fontStyle=0;overflow=hidden;rounded=0;sketch=0;fontColor=#1A1A1A;strokeColor=#909090;" vertex="1" parent="chuMLk6BhLXK9JFkTnlV-125">
          <mxGeometry width="30" height="30" as="geometry">
            <mxRectangle width="30" height="30" as="alternateBounds" />
          </mxGeometry>
        </mxCell>
        <mxCell id="chuMLk6BhLXK9JFkTnlV-127" value="id_pembelian" style="shape=partialRectangle;connectable=0;fillColor=none;top=0;left=0;bottom=0;right=0;align=left;spacingLeft=6;fontStyle=0;overflow=hidden;rounded=0;sketch=0;fontColor=#1A1A1A;strokeColor=#909090;" vertex="1" parent="chuMLk6BhLXK9JFkTnlV-125">
          <mxGeometry x="30" width="140" height="30" as="geometry">
            <mxRectangle width="140" height="30" as="alternateBounds" />
          </mxGeometry>
        </mxCell>
        <mxCell id="chuMLk6BhLXK9JFkTnlV-116" value="" style="shape=tableRow;horizontal=0;startSize=0;swimlaneHead=0;swimlaneBody=0;fillColor=none;collapsible=0;dropTarget=0;points=[[0,0.5],[1,0.5]];portConstraint=eastwest;top=0;left=0;right=0;bottom=0;rounded=0;sketch=0;fontColor=#1A1A1A;strokeColor=#909090;" vertex="1" parent="chuMLk6BhLXK9JFkTnlV-112">
          <mxGeometry y="90" width="170" height="30" as="geometry" />
        </mxCell>
        <mxCell id="chuMLk6BhLXK9JFkTnlV-117" value="FK" style="shape=partialRectangle;connectable=0;fillColor=none;top=0;left=0;bottom=0;right=0;editable=1;overflow=hidden;rounded=0;sketch=0;fontColor=#1A1A1A;strokeColor=#909090;" vertex="1" parent="chuMLk6BhLXK9JFkTnlV-116">
          <mxGeometry width="30" height="30" as="geometry">
            <mxRectangle width="30" height="30" as="alternateBounds" />
          </mxGeometry>
        </mxCell>
        <mxCell id="chuMLk6BhLXK9JFkTnlV-118" value="id_produk" style="shape=partialRectangle;connectable=0;fillColor=none;top=0;left=0;bottom=0;right=0;align=left;spacingLeft=6;overflow=hidden;rounded=0;sketch=0;fontColor=#1A1A1A;strokeColor=#909090;" vertex="1" parent="chuMLk6BhLXK9JFkTnlV-116">
          <mxGeometry x="30" width="140" height="30" as="geometry">
            <mxRectangle width="140" height="30" as="alternateBounds" />
          </mxGeometry>
        </mxCell>
        <mxCell id="chuMLk6BhLXK9JFkTnlV-119" value="" style="shape=tableRow;horizontal=0;startSize=0;swimlaneHead=0;swimlaneBody=0;fillColor=none;collapsible=0;dropTarget=0;points=[[0,0.5],[1,0.5]];portConstraint=eastwest;top=0;left=0;right=0;bottom=0;rounded=0;sketch=0;fontColor=#1A1A1A;strokeColor=#909090;" vertex="1" parent="chuMLk6BhLXK9JFkTnlV-112">
          <mxGeometry y="120" width="170" height="30" as="geometry" />
        </mxCell>
        <mxCell id="chuMLk6BhLXK9JFkTnlV-120" value="" style="shape=partialRectangle;connectable=0;fillColor=none;top=0;left=0;bottom=0;right=0;editable=1;overflow=hidden;rounded=0;sketch=0;fontColor=#1A1A1A;strokeColor=#909090;" vertex="1" parent="chuMLk6BhLXK9JFkTnlV-119">
          <mxGeometry width="30" height="30" as="geometry">
            <mxRectangle width="30" height="30" as="alternateBounds" />
          </mxGeometry>
        </mxCell>
        <mxCell id="chuMLk6BhLXK9JFkTnlV-121" value="" style="shape=partialRectangle;connectable=0;fillColor=none;top=0;left=0;bottom=0;right=0;align=left;spacingLeft=6;overflow=hidden;rounded=0;sketch=0;fontColor=#1A1A1A;strokeColor=#909090;" vertex="1" parent="chuMLk6BhLXK9JFkTnlV-119">
          <mxGeometry x="30" width="140" height="30" as="geometry">
            <mxRectangle width="140" height="30" as="alternateBounds" />
          </mxGeometry>
        </mxCell>
        <mxCell id="chuMLk6BhLXK9JFkTnlV-122" value="" style="shape=tableRow;horizontal=0;startSize=0;swimlaneHead=0;swimlaneBody=0;fillColor=none;collapsible=0;dropTarget=0;points=[[0,0.5],[1,0.5]];portConstraint=eastwest;top=0;left=0;right=0;bottom=0;rounded=0;sketch=0;fontColor=#1A1A1A;strokeColor=#909090;" vertex="1" parent="chuMLk6BhLXK9JFkTnlV-112">
          <mxGeometry y="150" width="170" height="20" as="geometry" />
        </mxCell>
        <mxCell id="chuMLk6BhLXK9JFkTnlV-123" value="" style="shape=partialRectangle;connectable=0;fillColor=none;top=0;left=0;bottom=0;right=0;editable=1;overflow=hidden;rounded=0;sketch=0;fontColor=#1A1A1A;strokeColor=#909090;" vertex="1" parent="chuMLk6BhLXK9JFkTnlV-122">
          <mxGeometry width="30" height="20" as="geometry">
            <mxRectangle width="30" height="20" as="alternateBounds" />
          </mxGeometry>
        </mxCell>
        <mxCell id="chuMLk6BhLXK9JFkTnlV-124" value="" style="shape=partialRectangle;connectable=0;fillColor=none;top=0;left=0;bottom=0;right=0;align=left;spacingLeft=6;overflow=hidden;rounded=0;sketch=0;fontColor=#1A1A1A;strokeColor=#909090;" vertex="1" parent="chuMLk6BhLXK9JFkTnlV-122">
          <mxGeometry x="30" width="140" height="20" as="geometry">
            <mxRectangle width="140" height="20" as="alternateBounds" />
          </mxGeometry>
        </mxCell>
        <mxCell id="chuMLk6BhLXK9JFkTnlV-135" style="edgeStyle=orthogonalEdgeStyle;curved=0;rounded=1;sketch=0;orthogonalLoop=1;jettySize=auto;html=1;fontColor=#1A1A1A;strokeColor=#182E3E;entryX=1;entryY=0.5;entryDx=0;entryDy=0;labelBackgroundColor=#EEEEEE;exitX=0;exitY=0.5;exitDx=0;exitDy=0;" edge="1" parent="1" source="chuMLk6BhLXK9JFkTnlV-146" target="chuMLk6BhLXK9JFkTnlV-116">
          <mxGeometry relative="1" as="geometry">
            <mxPoint x="-1010" y="2480" as="targetPoint" />
            <Array as="points">
              <mxPoint x="-970" y="2705" />
              <mxPoint x="-970" y="2135" />
              <mxPoint x="-910" y="2135" />
              <mxPoint x="-910" y="2340" />
              <mxPoint x="-1000" y="2340" />
              <mxPoint x="-1000" y="2485" />
            </Array>
          </mxGeometry>
        </mxCell>
        <mxCell id="chuMLk6BhLXK9JFkTnlV-136" style="edgeStyle=orthogonalEdgeStyle;curved=0;rounded=1;sketch=0;orthogonalLoop=1;jettySize=auto;html=1;fontColor=#1A1A1A;strokeColor=#182E3E;labelBackgroundColor=#EEEEEE;" edge="1" parent="1" source="chuMLk6BhLXK9JFkTnlV-21" target="chuMLk6BhLXK9JFkTnlV-56">
          <mxGeometry relative="1" as="geometry" />
        </mxCell>
        <mxCell id="chuMLk6BhLXK9JFkTnlV-140" style="edgeStyle=orthogonalEdgeStyle;curved=0;rounded=1;sketch=0;orthogonalLoop=1;jettySize=auto;html=1;entryX=0;entryY=0.5;entryDx=0;entryDy=0;fontColor=#1A1A1A;strokeColor=#182E3E;labelBackgroundColor=#EEEEEE;" edge="1" parent="1" source="chuMLk6BhLXK9JFkTnlV-53" target="chuMLk6BhLXK9JFkTnlV-125">
          <mxGeometry relative="1" as="geometry">
            <Array as="points">
              <mxPoint x="-1240" y="2655" />
              <mxPoint x="-1240" y="2455" />
            </Array>
          </mxGeometry>
        </mxCell>
        <mxCell id="chuMLk6BhLXK9JFkTnlV-141" style="edgeStyle=orthogonalEdgeStyle;curved=0;rounded=1;sketch=0;orthogonalLoop=1;jettySize=auto;html=1;entryX=0;entryY=0.5;entryDx=0;entryDy=0;fontColor=#1A1A1A;strokeColor=#182E3E;labelBackgroundColor=#EEEEEE;" edge="1" parent="1" source="chuMLk6BhLXK9JFkTnlV-70" target="chuMLk6BhLXK9JFkTnlV-116">
          <mxGeometry relative="1" as="geometry">
            <Array as="points">
              <mxPoint x="-1270" y="2135" />
              <mxPoint x="-1270" y="2485" />
            </Array>
          </mxGeometry>
        </mxCell>
        <mxCell id="chuMLk6BhLXK9JFkTnlV-142" value="pembayaran" style="shape=table;startSize=30;container=1;collapsible=1;childLayout=tableLayout;fixedRows=1;rowLines=0;fontStyle=1;align=center;resizeLast=1;rounded=0;sketch=0;fontColor=#1A1A1A;strokeColor=#909090;fillColor=#F5AB50;" vertex="1" parent="1">
          <mxGeometry x="-940" y="2615" width="180" height="175" as="geometry" />
        </mxCell>
        <mxCell id="chuMLk6BhLXK9JFkTnlV-143" value="" style="shape=tableRow;horizontal=0;startSize=0;swimlaneHead=0;swimlaneBody=0;fillColor=none;collapsible=0;dropTarget=0;points=[[0,0.5],[1,0.5]];portConstraint=eastwest;top=0;left=0;right=0;bottom=1;rounded=0;sketch=0;fontColor=#1A1A1A;strokeColor=#909090;" vertex="1" parent="chuMLk6BhLXK9JFkTnlV-142">
          <mxGeometry y="30" width="180" height="45" as="geometry" />
        </mxCell>
        <mxCell id="chuMLk6BhLXK9JFkTnlV-144" value="PK" style="shape=partialRectangle;connectable=0;fillColor=none;top=0;left=0;bottom=0;right=0;fontStyle=1;overflow=hidden;rounded=0;sketch=0;fontColor=#1A1A1A;strokeColor=#909090;" vertex="1" parent="chuMLk6BhLXK9JFkTnlV-143">
          <mxGeometry width="30" height="45" as="geometry">
            <mxRectangle width="30" height="45" as="alternateBounds" />
          </mxGeometry>
        </mxCell>
        <mxCell id="chuMLk6BhLXK9JFkTnlV-145" value="id_pembayaran" style="shape=partialRectangle;connectable=0;fillColor=none;top=0;left=0;bottom=0;right=0;align=left;spacingLeft=6;fontStyle=5;overflow=hidden;rounded=0;sketch=0;fontColor=#1A1A1A;strokeColor=#909090;" vertex="1" parent="chuMLk6BhLXK9JFkTnlV-143">
          <mxGeometry x="30" width="150" height="45" as="geometry">
            <mxRectangle width="150" height="45" as="alternateBounds" />
          </mxGeometry>
        </mxCell>
        <mxCell id="chuMLk6BhLXK9JFkTnlV-146" value="" style="shape=tableRow;horizontal=0;startSize=0;swimlaneHead=0;swimlaneBody=0;fillColor=none;collapsible=0;dropTarget=0;points=[[0,0.5],[1,0.5]];portConstraint=eastwest;top=0;left=0;right=0;bottom=0;rounded=0;sketch=0;fontColor=#1A1A1A;strokeColor=#909090;" vertex="1" parent="chuMLk6BhLXK9JFkTnlV-142">
          <mxGeometry y="75" width="180" height="30" as="geometry" />
        </mxCell>
        <mxCell id="chuMLk6BhLXK9JFkTnlV-147" value="FK" style="shape=partialRectangle;connectable=0;fillColor=none;top=0;left=0;bottom=0;right=0;editable=1;overflow=hidden;rounded=0;sketch=0;fontColor=#1A1A1A;strokeColor=#909090;" vertex="1" parent="chuMLk6BhLXK9JFkTnlV-146">
          <mxGeometry width="30" height="30" as="geometry">
            <mxRectangle width="30" height="30" as="alternateBounds" />
          </mxGeometry>
        </mxCell>
        <mxCell id="chuMLk6BhLXK9JFkTnlV-148" value="id_produk" style="shape=partialRectangle;connectable=0;fillColor=none;top=0;left=0;bottom=0;right=0;align=left;spacingLeft=6;overflow=hidden;rounded=0;sketch=0;fontColor=#1A1A1A;strokeColor=#909090;" vertex="1" parent="chuMLk6BhLXK9JFkTnlV-146">
          <mxGeometry x="30" width="150" height="30" as="geometry">
            <mxRectangle width="150" height="30" as="alternateBounds" />
          </mxGeometry>
        </mxCell>
        <mxCell id="chuMLk6BhLXK9JFkTnlV-149" value="" style="shape=tableRow;horizontal=0;startSize=0;swimlaneHead=0;swimlaneBody=0;fillColor=none;collapsible=0;dropTarget=0;points=[[0,0.5],[1,0.5]];portConstraint=eastwest;top=0;left=0;right=0;bottom=0;rounded=0;sketch=0;fontColor=#1A1A1A;strokeColor=#909090;" vertex="1" parent="chuMLk6BhLXK9JFkTnlV-142">
          <mxGeometry y="105" width="180" height="30" as="geometry" />
        </mxCell>
        <mxCell id="chuMLk6BhLXK9JFkTnlV-150" value="" style="shape=partialRectangle;connectable=0;fillColor=none;top=0;left=0;bottom=0;right=0;editable=1;overflow=hidden;rounded=0;sketch=0;fontColor=#1A1A1A;strokeColor=#909090;" vertex="1" parent="chuMLk6BhLXK9JFkTnlV-149">
          <mxGeometry width="30" height="30" as="geometry">
            <mxRectangle width="30" height="30" as="alternateBounds" />
          </mxGeometry>
        </mxCell>
        <mxCell id="chuMLk6BhLXK9JFkTnlV-151" value="total_pembayaran" style="shape=partialRectangle;connectable=0;fillColor=none;top=0;left=0;bottom=0;right=0;align=left;spacingLeft=6;overflow=hidden;rounded=0;sketch=0;fontColor=#1A1A1A;strokeColor=#909090;" vertex="1" parent="chuMLk6BhLXK9JFkTnlV-149">
          <mxGeometry x="30" width="150" height="30" as="geometry">
            <mxRectangle width="150" height="30" as="alternateBounds" />
          </mxGeometry>
        </mxCell>
        <mxCell id="chuMLk6BhLXK9JFkTnlV-152" value="" style="shape=tableRow;horizontal=0;startSize=0;swimlaneHead=0;swimlaneBody=0;fillColor=none;collapsible=0;dropTarget=0;points=[[0,0.5],[1,0.5]];portConstraint=eastwest;top=0;left=0;right=0;bottom=0;rounded=0;sketch=0;fontColor=#1A1A1A;strokeColor=#909090;" vertex="1" parent="chuMLk6BhLXK9JFkTnlV-142">
          <mxGeometry y="135" width="180" height="30" as="geometry" />
        </mxCell>
        <mxCell id="chuMLk6BhLXK9JFkTnlV-153" value="" style="shape=partialRectangle;connectable=0;fillColor=none;top=0;left=0;bottom=0;right=0;editable=1;overflow=hidden;rounded=0;sketch=0;fontColor=#1A1A1A;strokeColor=#909090;" vertex="1" parent="chuMLk6BhLXK9JFkTnlV-152">
          <mxGeometry width="30" height="30" as="geometry">
            <mxRectangle width="30" height="30" as="alternateBounds" />
          </mxGeometry>
        </mxCell>
        <mxCell id="chuMLk6BhLXK9JFkTnlV-154" value="" style="shape=partialRectangle;connectable=0;fillColor=none;top=0;left=0;bottom=0;right=0;align=left;spacingLeft=6;overflow=hidden;rounded=0;sketch=0;fontColor=#1A1A1A;strokeColor=#909090;" vertex="1" parent="chuMLk6BhLXK9JFkTnlV-152">
          <mxGeometry x="30" width="150" height="30" as="geometry">
            <mxRectangle width="150" height="30" as="alternateBounds" />
          </mxGeometry>
        </mxCell>
        <mxCell id="chuMLk6BhLXK9JFkTnlV-155" style="edgeStyle=orthogonalEdgeStyle;curved=0;rounded=1;sketch=0;orthogonalLoop=1;jettySize=auto;html=1;exitX=1;exitY=0.5;exitDx=0;exitDy=0;fontColor=#1A1A1A;strokeColor=#182E3E;" edge="1" parent="1" source="chuMLk6BhLXK9JFkTnlV-70">
          <mxGeometry relative="1" as="geometry">
            <mxPoint x="-940" y="2135" as="targetPoint" />
          </mxGeometry>
        </mxCell>
      </root>
    </mxGraphModel>
  </diagram>
</mxfile>
